<svg width="107" height="40" viewBox="0 0 107 40" fill="none" xmlns="http://www.w3.org/2000/svg">
<g clip-path="url(#clip0_2011_118)">
<path d="M12.1908 0C13.76 0 14.627 0.459548 15.2324 4.00048L21.3254 40H15.586L10.6651 8.85718L8.63575 21.3133C11.2802 21.9422 12.0406 22.455 12.0406 22.455C12.0406 22.455 8.03033 29.4256 5.48755 40H0L7.16336 0H12.1908Z" fill="#FF713D"/>
<path d="M37.4393 0V4.97279C37.4393 5.7129 37.0858 6.1144 36.3738 6.1144H30.988V40H25.452V6.1144H19.9208C19.1071 6.1144 18.8553 5.7129 18.8553 4.97279V0H37.4442H37.4393Z" fill="#FF713D"/>
<path d="M39.7351 0H55.2242C56.9001 0 57.457 1.71242 57.457 3.42968V40H42.3215C40.8491 40 39.7351 38.6842 39.7351 36.6864V0ZM45.1161 6.1144V31.999C45.1161 33.1406 45.0677 33.8856 46.5885 33.8856H52.0712V8.05902C52.0712 7.02866 51.8193 6.1144 50.6472 6.1144H45.1161Z" fill="#FF713D"/>
<path d="M76.4625 40V13.5446L70.878 31.6604L65.2936 13.5446V40H60.0143V0H63.8745C64.8432 0 65.6036 0.285403 66.3156 2.05587L70.8345 16.1712L75.5568 2.05587C76.167 0.512758 76.8257 0 78.2012 0H81.7514V40H76.4722H76.4625Z" fill="#FF713D"/>
<path d="M84.0424 40V0H88.0042C89.4766 0 89.2732 1.19966 89.2732 2.91692V40.0048H84.0424V40Z" fill="#FF713D"/>
<path d="M98.4175 5.9451C97.2987 5.9451 96.7902 6.3466 96.7902 7.48821V32.3473C96.7902 33.4889 97.042 34.1178 98.0591 34.1178H107V40.0048H94.1505C92.5813 40.0048 91.5641 38.631 91.5641 36.9186V2.62668C91.5641 0.512758 92.5813 0 94.1505 0H107V5.9451H98.4175Z" fill="#FF713D"/>
</g>
<defs>
<clipPath id="clip0_2011_118">
<rect width="107" height="40" fill="white"/>
</clipPath>
</defs>
</svg>
